<?xml version="1.0" encoding="UTF-8"?>
<svg id="uuid-bc4a0e3e-a194-4b6a-b115-7365ed609bc5" data-name="Calque 2" xmlns="http://www.w3.org/2000/svg" xmlns:xlink="http://www.w3.org/1999/xlink" viewBox="0 0 348.42 132">
  <defs>
    <style>
      .uuid-a00ba354-74e9-4ae2-9557-a01cea5dc525 {
        fill: url(#uuid-702f0a43-02b7-454a-aec2-38e8a42e7d10);
      }

      .uuid-ad2f7b07-dfc4-4903-8f68-a35952452b08 {
        fill: url(#uuid-a4b37f9d-2226-49c1-ba06-90c304f78e54);
      }

      .uuid-58bbf4d6-fe57-48d9-a301-3cf8dc1e2a02 {
        fill: url(#uuid-46e7d54f-2b55-4cc9-9e28-5152f6ebd520);
      }
    </style>
    <linearGradient id="uuid-a4b37f9d-2226-49c1-ba06-90c304f78e54" data-name="Dégradé sans nom 2" x1="38.63" y1="104.63" x2="105.75" y2="104.63" gradientUnits="userSpaceOnUse">
      <stop offset="0" stop-color="#cf89e0"/>
      <stop offset="1" stop-color="#82368c"/>
    </linearGradient>
    <linearGradient id="uuid-702f0a43-02b7-454a-aec2-38e8a42e7d10" data-name="Dégradé sans nom 2" y1="28.81" x2="105.75" y2="28.81" xlink:href="#uuid-a4b37f9d-2226-49c1-ba06-90c304f78e54"/>
    <linearGradient id="uuid-46e7d54f-2b55-4cc9-9e28-5152f6ebd520" data-name="Dégradé sans nom 2" y1="72.75" x2="0" y2="72.75" xlink:href="#uuid-a4b37f9d-2226-49c1-ba06-90c304f78e54"/>
  </defs>
  <g id="uuid-95d26f06-086e-401d-95fd-24c604037876" data-name="Calque 1">
    <g>
      <g>
        <path class="uuid-ad2f7b07-dfc4-4903-8f68-a35952452b08" d="m100.46,114.72l-51.77,16.89c-4.96,1.62-10.05-2.08-10.05-7.3v-28.05l57.07-18.61c4.96-1.62,10.05,2.08,10.05,7.3v22.49c0,3.32-2.14,6.27-5.29,7.3Z"/>
        <path class="uuid-a00ba354-74e9-4ae2-9557-a01cea5dc525" d="m100.46,37.46l-61.83,20.17V24.57c0-3.32,2.14-6.27,5.29-7.3L95.7.38c4.96-1.62,10.05,2.08,10.05,7.3v22.49c0,3.32-2.14,6.27-5.29,7.3Z"/>
        <path class="uuid-58bbf4d6-fe57-48d9-a301-3cf8dc1e2a02" d="m38.63,96.26l-33.03-9.26c-3.31-.93-5.6-3.95-5.6-7.39v-22.69c0-5.08,4.85-8.76,9.75-7.39l28.88,8.1v38.63Z"/>
      </g>
      <g>
        <path d="m163.63,92.47c-7.61,0-13.44-2.06-17.49-6.17-4.04-4.11-6.06-9.72-6.06-16.81,0-7.52,1.96-13.37,5.89-17.56,3.92-4.18,9.79-6.27,17.59-6.27,2.72,0,5.18.2,7.37.6,2.19.4,4.24.95,6.17,1.66v8.32c-4-1.65-8.27-2.47-12.83-2.47-5.17,0-8.88,1.29-11.14,3.88-2.26,2.59-3.38,6.53-3.38,11.85,0,9.97,4.89,14.95,14.67,14.95,2.21,0,4.39-.2,6.56-.6,2.16-.4,4.23-1,6.21-1.8v8.39c-1.93.61-3.98,1.1-6.17,1.48-2.19.38-4.64.56-7.37.56Z"/>
        <path d="m203.75,92.47c-6.25,0-11.2-1.52-14.84-4.55-3.64-3.03-5.46-7.44-5.46-13.22v-28.34h9.52v27.64c0,3.48.94,6.08,2.82,7.79,1.88,1.72,4.54,2.57,7.97,2.57s6.07-.86,7.93-2.57c1.86-1.72,2.79-4.31,2.79-7.79v-27.64h9.52v28.34c0,5.78-1.81,10.19-5.43,13.22-3.62,3.03-8.56,4.55-14.81,4.55Z"/>
        <path d="m245.76,92.47c-2.92,0-5.63-.21-8.14-.63-2.52-.42-4.69-1.03-6.52-1.83v-8.39c2.07.85,4.3,1.53,6.7,2.04,2.4.52,4.75.78,7.05.78,3.29,0,5.71-.31,7.26-.92,1.55-.61,2.33-2,2.33-4.16,0-1.36-.33-2.44-.99-3.24-.66-.8-1.8-1.52-3.42-2.15-1.62-.63-3.91-1.35-6.87-2.15-4.75-1.32-8.08-2.96-10.01-4.94-1.93-1.97-2.89-4.7-2.89-8.18,0-4.18,1.53-7.4,4.58-9.66,3.05-2.26,7.5-3.38,13.33-3.38,2.73,0,5.26.19,7.61.56,2.35.38,4.25.82,5.71,1.34v8.39c-3.85-1.46-7.87-2.19-12.06-2.19-2.96,0-5.29.32-6.98.95-1.69.63-2.54,1.96-2.54,3.98,0,1.18.3,2.12.92,2.82.61.71,1.66,1.34,3.14,1.9s3.56,1.2,6.24,1.9c3.71.99,6.58,2.16,8.6,3.53,2.02,1.36,3.42,2.92,4.19,4.65.78,1.74,1.16,3.69,1.16,5.85,0,3.95-1.5,7.12-4.51,9.52-3.01,2.4-7.64,3.6-13.89,3.6Z"/>
        <path d="m279.82,91.77v-38.07h-13.96v-7.33h37.37v7.33h-13.89v38.07h-9.52Z"/>
        <path d="m322.62,91.77v-16.78l-16.29-28.62h9.94l11.14,20.52,11.14-20.52h9.87l-16.29,28.62v16.78h-9.52Z"/>
      </g>
    </g>
  </g>
</svg>